<svg width="32" height="32" viewBox="0 0 32 32" fill="none" xmlns="http://www.w3.org/2000/svg">
<path d="M26.6667 0H5.33333C2.38781 0 0 2.38781 0 5.33333V26.6667C0 29.6122 2.38781 32 5.33333 32H26.6667C29.6122 32 32 29.6122 32 26.6667V5.33333C32 2.38781 29.6122 0 26.6667 0Z" fill="url(#paint0_linear_157_231)"/>
<path d="M20.7867 18.9333C21.7231 18.5221 22.5066 17.8272 23.0267 16.9466C23.5369 16.0638 23.7995 15.0596 23.7867 14.04C23.8086 13.3189 23.684 12.601 23.4204 11.9295C23.1569 11.258 22.7598 10.6469 22.2533 10.1333C21.6518 9.58242 20.9443 9.15996 20.1741 8.89174C19.4038 8.62352 18.5869 8.51516 17.7733 8.57329H14.24V6.95996H10.0933V8.57329H7.65333L0 16.2266V26.6666C0 28.0811 0.561903 29.4377 1.5621 30.4379C2.56229 31.4381 3.91885 32 5.33333 32H17.3333L24.2933 25.04L20.7867 18.9333Z" fill="url(#paint1_linear_157_231)"/>
<path d="M20.7867 18.9333C21.723 18.5221 22.5066 17.8272 23.0267 16.9466C23.5369 16.0638 23.7995 15.0596 23.7867 14.04C23.8086 13.3189 23.684 12.601 23.4204 11.9295C23.1568 11.258 22.7598 10.6469 22.2533 10.1333C21.6518 9.58242 20.9443 9.15996 20.174 8.89174C19.4038 8.62352 18.5869 8.51516 17.7733 8.57329H14.24V6.95996H10.0933V8.57329H7.65332V12.3866H10.0933V16H7.65332V19.64H10.0933V25.0933H14.24V19.5866H16.7067L19.5867 25.04H24.3467L20.7867 18.9333ZM19.3067 15.08C19.1441 15.3871 18.8897 15.6357 18.5789 15.7911C18.2681 15.9465 17.9165 16.0009 17.5733 15.9466H14.24V12.3866H17.72C18.0398 12.3357 18.3675 12.3901 18.6536 12.5416C18.9398 12.6931 19.169 12.9335 19.3067 13.2266C19.4643 13.5101 19.547 13.829 19.547 14.1533C19.547 14.4776 19.4643 14.7965 19.3067 15.08Z" fill="white"/>
<defs>
<linearGradient id="paint0_linear_157_231" x1="1.56" y1="30.44" x2="30.44" y2="1.56" gradientUnits="userSpaceOnUse">
<stop stop-color="#FC55E8"/>
<stop offset="1" stop-color="#F5D94E"/>
</linearGradient>
<linearGradient id="paint1_linear_157_231" x1="12.1733" y1="32" x2="12.1733" y2="6.95996" gradientUnits="userSpaceOnUse">
<stop stop-color="#D961C2"/>
<stop offset="1" stop-color="#79ACC6"/>
</linearGradient>
</defs>
</svg>
