<svg width="16" height="16" viewBox="0 0 16 16" fill="none" xmlns="http://www.w3.org/2000/svg">
<path fill-rule="evenodd" clip-rule="evenodd" d="M7.07038 12.6787C7.49038 14.2971 9.00038 15.5359 9.79038 15.486C10.7217 15.265 11.5995 14.8604 12.3722 14.296C13.1449 13.7316 13.7971 13.0187 14.2904 12.1991C15.5204 10.0812 15.1004 8.03313 13.4304 7.99316C12.8204 7.99316 6.26038 9.60162 7.07038 12.6787Z" fill="black" fill-opacity="0.6"/>
<path fill-rule="evenodd" clip-rule="evenodd" d="M8.5206 0.500023C7.46613 0.49799 6.4232 0.719314 5.4606 1.1494C5.3006 1.216 5.14727 1.29593 5.0006 1.38917L4.6906 1.55901C4.38282 1.76148 4.11502 2.01886 3.9006 2.31828C1.7306 5.17554 8.9906 7.31349 12.9006 7.31349C14.6806 8.59226 15.1806 3.69696 13.4406 2.31828C12.0727 1.14106 10.3261 0.495569 8.5206 0.500023Z" fill="black" fill-opacity="0.6"/>
<path fill-rule="evenodd" clip-rule="evenodd" d="M5.79049 2.17887C4.81049 3.61749 1.54049 4.63651 1.00049 4.49665L1.07049 4.36677C1.62618 3.30406 2.42435 2.38687 3.40049 1.68934C3.59305 1.54223 3.79333 1.4055 4.00049 1.27973C4.3419 1.09689 4.72312 1.00082 5.11049 1C6.56049 1 5.80049 2.16888 5.79049 2.17887Z" fill="black"/>
<path fill-rule="evenodd" clip-rule="evenodd" d="M5.00059 12.9779C5.0495 13.816 5.0059 14.657 4.87059 15.4855C4.59359 15.47 4.32664 15.3765 4.10059 15.2158C3.11186 14.6563 2.25031 13.8977 1.57059 12.9879C0.77899 11.9282 0.266232 10.6869 0.0792927 9.37782C-0.107647 8.06876 0.0372102 6.73375 0.500592 5.49512C1.09059 6.26438 1.76059 6.95372 2.34059 7.73297C2.92059 8.51222 3.64059 9.67111 3.79059 9.93086C4.40978 10.8472 4.82261 11.8868 5.00059 12.9779Z" fill="black"/>
<path fill-rule="evenodd" clip-rule="evenodd" d="M16.0005 8.35259C15.9986 9.34405 15.8121 10.3265 15.4505 11.2498C14.5205 12.2489 8.27046 9.79121 8.21046 9.76124C7.35046 9.39159 4.75046 8.24269 4.52046 6.49437C4.18046 3.86689 9.41045 2.06862 11.7005 1.99868C12.2666 1.96612 12.8289 2.10919 13.3105 2.40829C14.1629 3.15626 14.8443 4.07867 15.3085 5.11294C15.7726 6.1472 16.0086 7.26911 16.0005 8.40254V8.35259ZM10.5305 14.7864C10.9105 13.4677 14.1705 12.109 14.9005 12.0391C14.9905 12.0391 15.0205 12.089 14.9805 12.1689C14.2444 13.5288 13.1294 14.6463 11.7705 15.3858C11.0905 15.6656 10.3405 15.4258 10.5305 14.7365V14.7864Z" fill="black"/>
</svg>
