<svg width="16" height="14" viewBox="0 0 16 14" fill="none" xmlns="http://www.w3.org/2000/svg">
<path d="M15.9053 11.0405L13.2436 13.8072C13.1876 13.869 13.1197 13.9189 13.044 13.9538C12.965 13.9827 12.8818 13.9985 12.7977 14.0005H0.32094C0.262441 13.9993 0.205205 13.9832 0.154582 13.9538C0.103309 13.923 0.0635638 13.8762 0.0414593 13.8205C0.0216698 13.7644 0.0216698 13.7033 0.0414593 13.6472C0.0505942 13.5901 0.0760136 13.5368 0.114657 13.4938L2.77638 10.7272C2.83238 10.6653 2.90028 10.6154 2.976 10.5805C3.05499 10.5516 3.13815 10.5359 3.22221 10.5338H15.6791C15.7376 10.5351 15.7948 10.5511 15.8454 10.5805C15.8967 10.6113 15.9364 10.6582 15.9585 10.7138C15.9783 10.7699 15.9783 10.8311 15.9585 10.8872C15.9552 10.9422 15.9368 10.9953 15.9053 11.0405ZM13.2436 5.46051C13.1876 5.39865 13.1197 5.34876 13.044 5.31384C12.965 5.28495 12.8818 5.26919 12.7977 5.26717H0.32094C0.260607 5.27438 0.203231 5.29737 0.154582 5.33384C0.103309 5.36466 0.0635638 5.41151 0.0414593 5.46717C0.0216698 5.52325 0.0216698 5.58443 0.0414593 5.64051C0.0505942 5.69762 0.0760136 5.75087 0.114657 5.79384L2.77638 8.56051C2.83238 8.62237 2.90028 8.67225 2.976 8.70717C3.05499 8.73606 3.13815 8.75182 3.22221 8.75384H15.6791C15.7376 8.75263 15.7948 8.73657 15.8454 8.70717C15.8967 8.67635 15.9364 8.6295 15.9585 8.57384C15.9783 8.51776 15.9783 8.45658 15.9585 8.40051C15.9494 8.3434 15.924 8.29015 15.8853 8.24717L13.2436 5.46051ZM0.32094 3.46717H12.8177C12.9018 3.46516 12.9849 3.44939 13.0639 3.42051C13.1396 3.38559 13.2075 3.3357 13.2635 3.27384L15.9253 0.507174C15.9591 0.462659 15.9799 0.409547 15.9852 0.353841C16.0049 0.297764 16.0049 0.236584 15.9852 0.180507C15.9631 0.124844 15.9233 0.0779977 15.872 0.0471739C15.8136 0.0130692 15.7466 -0.00315411 15.6791 0.000507181H3.18229C3.09823 0.0025242 3.01506 0.0182874 2.93608 0.0471739C2.86036 0.0820936 2.79245 0.13198 2.73645 0.193841L0.0747308 2.96051C0.0408845 3.00502 0.0201402 3.05813 0.0148421 3.11384C-0.00494735 3.16992 -0.00494735 3.2311 0.0148421 3.28717C0.0369466 3.34284 0.076692 3.38968 0.127965 3.42051C0.18636 3.45461 0.253446 3.47083 0.32094 3.46717Z" fill="black" fill-opacity="0.9"/>
</svg>
