<svg xmlns="http://www.w3.org/2000/svg" xmlns:xlink="http://www.w3.org/1999/xlink" viewBox="0 0 40 40"><defs><style>.cls-1{isolation:isolate;}.cls-2{fill:url(#linear-gradient);}.cls-3{mix-blend-mode:multiply;opacity:0.2;}.cls-4{fill:#fff;}</style><linearGradient id="linear-gradient" x1="1.76" y1="38.24" x2="38.24" y2="1.76" gradientUnits="userSpaceOnUse"><stop offset="0" stop-color="#0e3ca5"/><stop offset="1" stop-color="#5493f7"/></linearGradient></defs><g class="cls-1"><g id="Layer_2" data-name="Layer 2"><g id="Layer_1-2" data-name="Layer 1"><rect class="cls-2" width="40" height="40" rx="6"/><path class="cls-3" d="M26,20.19a6.16,6.16,0,0,0,2.79-2.49,7,7,0,0,0,1-3.63,6.62,6.62,0,0,0-1.92-4.88,7.52,7.52,0,0,0-5.61-1.95h-4.4v-2h-5.2v2h-3L0,16.81V34a6,6,0,0,0,6,6H18.26L30.44,27.83Z"/><path class="cls-4" d="M26,20.19a6.16,6.16,0,0,0,2.79-2.49,7,7,0,0,0,1-3.63,6.62,6.62,0,0,0-1.92-4.88,7.53,7.53,0,0,0-5.61-1.95h-4.4v-2h-5.2v2h-3V12h3v4.46h-3V21h3v6.83h5.2V21h3.06l3.62,6.83h5.94Zm-1.86-4.82A2.09,2.09,0,0,1,22,16.46H17.81V12h4.34a1.9,1.9,0,0,1,2,1.05A2.39,2.39,0,0,1,24.13,15.37Z"/><polygon class="cls-4" points="9.09 31.95 10.44 31.95 10.44 35.65 11.22 35.65 11.22 31.95 12.57 31.95 12.57 31.29 9.09 31.29 9.09 31.95"/><polygon class="cls-4" points="14.63 33.8 16.53 33.8 16.53 33.14 14.63 33.14 14.63 31.95 16.68 31.95 16.68 31.29 13.84 31.29 13.84 35.65 16.69 35.65 16.69 34.99 14.63 34.99 14.63 33.8"/><path class="cls-4" d="M20.56,33.89a1.15,1.15,0,0,0,.52-.48,1.41,1.41,0,0,0,.18-.73,1.46,1.46,0,0,0-.18-.73,1.21,1.21,0,0,0-.51-.49,2,2,0,0,0-.85-.17H18.08v4.36h.8v-1.6h.8l.86,1.6h.88l-1-1.73A.32.32,0,0,1,20.56,33.89ZM18.88,32h.72a1.08,1.08,0,0,1,.48.09.53.53,0,0,1,.28.25.8.8,0,0,1,.09.39.82.82,0,0,1-.09.4.61.61,0,0,1-.28.24,1.26,1.26,0,0,1-.48.08h-.72Z"/><path class="cls-4" d="M25.06,33.89a1.11,1.11,0,0,0,.52-.48,1.41,1.41,0,0,0,.18-.73,1.57,1.57,0,0,0-.17-.73,1.23,1.23,0,0,0-.52-.49,2,2,0,0,0-.85-.17H22.59v4.36h.79v-1.6h.8l.86,1.6h.88l-1-1.73A.32.32,0,0,1,25.06,33.89ZM23.38,32h.72a1.16,1.16,0,0,1,.49.09.62.62,0,0,1,.28.25.8.8,0,0,1,.09.39.82.82,0,0,1-.09.4.67.67,0,0,1-.28.24,1.34,1.34,0,0,1-.48.08h-.73Z"/><path class="cls-4" d="M30,35.65h.85l-1.54-4.36h-1l-1.53,4.36h.84L28,34.58h1.64Zm-1.78-1.71.59-1.76h0l.59,1.76Z"/></g></g></g></svg>