<svg xmlns="http://www.w3.org/2000/svg" xmlns:xlink="http://www.w3.org/1999/xlink" viewBox="0 0 40 40"><defs><style>.cls-1{isolation:isolate;}.cls-2{fill:url(#linear-gradient);}.cls-3{mix-blend-mode:multiply;opacity:0.2;}.cls-4{fill:#fff;}</style><linearGradient id="linear-gradient" x1="1.76" y1="38.24" x2="38.24" y2="1.76" gradientUnits="userSpaceOnUse"><stop offset="0" stop-color="#3f4246"/><stop offset="1" stop-color="#a7a7a7"/></linearGradient></defs><g class="cls-1"><g id="Layer_2" data-name="Layer 2"><g id="Layer_1-2" data-name="Layer 1"><rect class="cls-2" width="40" height="40" rx="6"/><path class="cls-3" d="M26,20.19a6.16,6.16,0,0,0,2.79-2.49,7,7,0,0,0,1-3.63,6.62,6.62,0,0,0-1.92-4.88,7.52,7.52,0,0,0-5.61-1.95h-4.4v-2h-5.2v2h-3L0,16.81V34a6,6,0,0,0,6,6H18.26L30.44,27.83Z"/><path class="cls-4" d="M26,20.19a6.16,6.16,0,0,0,2.79-2.49,7,7,0,0,0,1-3.63,6.62,6.62,0,0,0-1.92-4.88,7.53,7.53,0,0,0-5.61-1.95h-4.4v-2h-5.2v2h-3V12h3v4.46h-3V21h3v6.83h5.2V21h3.06l3.62,6.83h5.94Zm-1.86-4.82A2.09,2.09,0,0,1,22,16.46H17.81V12h4.34a1.9,1.9,0,0,1,2,1.05A2.39,2.39,0,0,1,24.13,15.37Z"/><polygon class="cls-4" points="13.19 34.26 13.15 34.26 11.1 31.29 10.39 31.29 10.39 35.65 11.18 35.65 11.18 32.68 11.21 32.68 13.27 35.65 13.97 35.65 13.97 31.29 13.19 31.29 13.19 34.26"/><polygon class="cls-4" points="16.82 33.8 18.72 33.8 18.72 33.14 16.82 33.14 16.82 31.95 18.87 31.95 18.87 31.29 16.03 31.29 16.03 35.65 18.89 35.65 18.89 34.99 16.82 34.99 16.82 33.8"/><path class="cls-4" d="M22.13,31.29,20.6,35.65h.84l.36-1.07h1.64l.36,1.07h.85l-1.54-4.36ZM22,33.94l.59-1.76h0l.59,1.76Z"/><path class="cls-4" d="M28.87,35.65h.88l-.95-1.73a.47.47,0,0,1,.09,0,1.18,1.18,0,0,0,.53-.48,1.41,1.41,0,0,0,.17-.73,1.46,1.46,0,0,0-.17-.73,1.23,1.23,0,0,0-.52-.49,1.93,1.93,0,0,0-.84-.17H26.42v4.36h.79v-1.6H28ZM27.21,32h.72a1.16,1.16,0,0,1,.49.09.57.57,0,0,1,.28.25.8.8,0,0,1,.09.39.82.82,0,0,1-.09.4.67.67,0,0,1-.28.24,1.34,1.34,0,0,1-.48.08h-.73Z"/></g></g></g></svg>