<svg width="40" height="40" viewBox="0 0 40 40" fill="none" xmlns="http://www.w3.org/2000/svg">
<path d="M34 0H6C2.68629 0 0 2.68629 0 6V34C0 37.3137 2.68629 40 6 40H34C37.3137 40 40 37.3137 40 34V6C40 2.68629 37.3137 0 34 0Z" fill="url(#paint0_linear_883_1615)"/>
<path d="M26 20.1902C27.1656 19.6694 28.1405 18.7993 28.79 17.7002C29.4486 16.6043 29.7945 15.3489 29.79 14.0702C29.8192 13.1689 29.664 12.2712 29.3338 11.432C29.0037 10.5929 28.5055 9.82999 27.87 9.19023C27.1163 8.50135 26.2302 7.97319 25.2657 7.63793C24.3012 7.30268 23.2785 7.16736 22.26 7.24023H17.86V5.24023H12.66V7.24023H9.66L0 16.8102V34.0002C0 35.5915 0.632141 37.1177 1.75736 38.2429C2.88258 39.3681 4.4087 40.0002 6 40.0002H18.26L30.44 27.8302L26 20.1902Z" fill="url(#paint1_linear_883_1615)"/>
<path d="M26.0002 20.1902C27.1657 19.6694 28.1406 18.7993 28.7902 17.7002C29.4488 16.6043 29.7946 15.3489 29.7902 14.0702C29.8194 13.1689 29.6641 12.2712 29.334 11.432C29.0038 10.5929 28.5057 9.82999 27.8702 9.19023C27.1161 8.50184 26.2299 7.97399 25.2655 7.63877C24.3011 7.30354 23.2786 7.16795 22.2602 7.24023H17.8602V5.24023H12.6602V7.24023H9.66016V12.0002H12.6602V16.4602H9.66016V21.0002H12.6602V27.8302H17.8602V21.0002H20.9202L24.5402 27.8302H30.4802L26.0002 20.1902ZM24.1402 15.3702C23.9388 15.7499 23.6253 16.0583 23.2423 16.2533C22.8594 16.4484 22.4256 16.5206 22.0002 16.4602H17.8102V12.0002H22.1502C22.552 11.9382 22.9631 12.0067 23.3231 12.1957C23.6831 12.3847 23.973 12.6843 24.1502 13.0502C24.3441 13.4068 24.4441 13.8069 24.4406 14.2128C24.4371 14.6187 24.3302 15.017 24.1302 15.3702H24.1402Z" fill="white"/>
<path d="M9.00008 33.57C8.87461 33.4669 8.73261 33.3858 8.58008 33.33C8.42887 33.2618 8.27149 33.2083 8.11008 33.17L7.70008 33.07L7.47008 33C7.38626 32.9682 7.30586 32.928 7.23008 32.88C7.15934 32.8395 7.10067 32.7808 7.06008 32.71C7.01584 32.6381 6.99489 32.5543 7.00008 32.47C6.99791 32.3662 7.02949 32.2644 7.09008 32.18C7.16678 32.0974 7.26309 32.0355 7.37008 32C7.50343 31.9468 7.64668 31.923 7.79008 31.93C7.99083 31.9216 8.18946 31.9739 8.36008 32.08C8.43178 32.1303 8.49141 32.1958 8.53465 32.2719C8.57789 32.348 8.60365 32.4328 8.61008 32.52H9.37008C9.37306 32.2878 9.30311 32.0605 9.17008 31.87C9.02573 31.6739 8.83271 31.5188 8.61008 31.42C8.35547 31.3067 8.07866 31.252 7.80008 31.26C7.51837 31.2532 7.23855 31.3078 6.98008 31.42C6.75452 31.5185 6.55819 31.6735 6.41008 31.87C6.26801 32.0679 6.19428 32.3066 6.20008 32.55C6.19646 32.6898 6.22218 32.8287 6.27558 32.9579C6.32897 33.0871 6.40886 33.2036 6.51008 33.3C6.75431 33.5082 7.04637 33.6525 7.36008 33.72L7.86008 33.85C7.99942 33.8844 8.13637 33.9279 8.27008 33.98C8.37413 34.0206 8.46678 34.0858 8.54008 34.17C8.60908 34.2465 8.64503 34.3472 8.64008 34.45C8.64008 34.5691 8.60148 34.6848 8.53008 34.78C8.4456 34.8745 8.33912 34.9466 8.22008 34.99C8.07768 35.0491 7.92411 35.0764 7.77008 35.07C7.61717 35.0728 7.46494 35.0491 7.32008 35C7.19122 34.945 7.08036 34.8549 7.00008 34.74C6.91414 34.6315 6.86509 34.4984 6.86008 34.36H6.08008C6.08278 34.6239 6.16274 34.8812 6.31008 35.1C6.45344 35.3076 6.65535 35.4677 6.89008 35.56C7.17255 35.6742 7.47555 35.7286 7.78008 35.72C8.0854 35.7266 8.38868 35.6687 8.67008 35.55C8.90073 35.4603 9.09924 35.3036 9.24008 35.1C9.36995 34.9012 9.43622 34.6675 9.43008 34.43C9.43563 34.2579 9.40141 34.0868 9.33008 33.93C9.2442 33.79 9.13216 33.6678 9.00008 33.57Z" fill="white"/>
<path d="M13.65 31.5C13.3473 31.3211 13.0017 31.2277 12.65 31.23C12.2988 31.2306 11.9539 31.3238 11.65 31.5C11.3437 31.678 11.0968 31.9423 10.94 32.26C10.7625 32.6387 10.6704 33.0518 10.6704 33.47C10.6704 33.8883 10.7625 34.3014 10.94 34.68C11.0994 34.9985 11.3455 35.2654 11.65 35.45C11.956 35.6198 12.3001 35.7093 12.65 35.71C13.0004 35.7124 13.3452 35.6228 13.65 35.45C13.9575 35.266 14.207 34.9991 14.37 34.68C14.5411 34.2996 14.6296 33.8872 14.6296 33.47C14.6296 33.0529 14.5411 32.6405 14.37 32.26C14.2096 31.9416 13.9593 31.6774 13.65 31.5ZM13.65 34.31C13.5641 34.5208 13.418 34.7017 13.23 34.83C13.0388 34.9416 12.8214 35.0004 12.6 35.0004C12.3786 35.0004 12.1612 34.9416 11.97 34.83C11.7814 34.6998 11.6325 34.5198 11.54 34.31C11.3403 33.7678 11.3403 33.1722 11.54 32.63C11.6325 32.4203 11.7814 32.2403 11.97 32.11C12.1612 31.9984 12.3786 31.9397 12.6 31.9397C12.8214 31.9397 13.0388 31.9984 13.23 32.11C13.418 32.2384 13.5641 32.4192 13.65 32.63C13.8639 33.1696 13.8639 33.7704 13.65 34.31Z" fill="white"/>
<path d="M16.77 31.29H15.98V35.65H18.7V34.99H16.77V31.29Z" fill="white"/>
<path d="M21.3999 31.29L19.8599 35.65H20.7099L21.0699 34.58H22.7099L23.0699 35.65H23.9099L22.3699 31.29H21.3999ZM21.2799 33.94L21.8699 32.18L22.4599 33.94H21.2799Z" fill="white"/>
<path d="M27.8898 34.26H27.8498L25.7898 31.29H25.0898V35.65H25.8798V32.68H25.9098L27.9698 35.65H28.6698V31.29H27.8898V34.26Z" fill="white"/>
<path d="M33.0501 35.65H33.9001L32.3601 31.29H31.3601L29.8301 35.65H30.6701L31.0301 34.58H32.6701L33.0501 35.65ZM31.2701 33.94L31.8501 32.18L32.4401 33.94H31.2701Z" fill="white"/>
<defs>
<linearGradient id="paint0_linear_883_1615" x1="1.76" y1="38.24" x2="38.24" y2="1.76" gradientUnits="userSpaceOnUse">
<stop stop-color="#FC55E8"/>
<stop offset="1" stop-color="#F5D94E"/>
</linearGradient>
<linearGradient id="paint1_linear_883_1615" x1="15.22" y1="40.0002" x2="15.22" y2="5.22023" gradientUnits="userSpaceOnUse">
<stop stop-color="#D961C2"/>
<stop offset="1" stop-color="#79ACC6"/>
</linearGradient>
</defs>
</svg>
