<svg width="16" height="16" viewBox="0 0 16 16" fill="none" xmlns="http://www.w3.org/2000/svg">
<path d="M12.84 0.813609L9.50667 5.78026C9.48018 5.81871 9.46157 5.86203 9.45193 5.90771C9.44228 5.95338 9.44178 6.00052 9.45046 6.04639C9.45914 6.09227 9.47682 6.13597 9.50249 6.17496C9.52816 6.21396 9.5613 6.24749 9.6 6.2736C9.66325 6.31868 9.73899 6.3429 9.81666 6.3429C9.89434 6.3429 9.97008 6.31868 10.0333 6.2736L13.3333 3.38694C13.3582 3.36251 13.3918 3.34882 13.4267 3.34882C13.4616 3.34882 13.4951 3.36251 13.52 3.38694C13.5302 3.41722 13.5302 3.44999 13.52 3.48027V12.4136C13.521 12.4314 13.5182 12.4491 13.5118 12.4657C13.5054 12.4823 13.4957 12.4974 13.4831 12.51C13.4705 12.5226 13.4554 12.5324 13.4388 12.5387C13.4222 12.5451 13.4044 12.5479 13.3867 12.5469C13.3674 12.5483 13.3481 12.5447 13.3306 12.5366C13.3131 12.5284 13.298 12.5159 13.2867 12.5003L3.33334 0.600277C3.16912 0.4081 2.96441 0.25464 2.73389 0.150906C2.50337 0.0471723 2.25276 -0.00426618 2.00001 0.000276742H1.65335C1.20946 0.0124623 0.787958 0.197849 0.478988 0.516786C0.170018 0.835723 -0.00189289 1.26289 1.57241e-05 1.70694V14.2936C-0.000865894 14.518 0.0426777 14.7403 0.128133 14.9477C0.213589 15.1552 0.339265 15.3437 0.497919 15.5023C0.656573 15.661 0.845064 15.7867 1.05252 15.8721C1.25998 15.9576 1.48231 16.0011 1.70668 16.0002C1.99822 16.0001 2.28487 15.9253 2.53929 15.7829C2.7937 15.6405 3.0074 15.4353 3.16001 15.1869L6.49334 10.2203C6.51982 10.1818 6.53843 10.1385 6.54807 10.0928C6.55772 10.0471 6.55822 10 6.54954 9.95413C6.54086 9.90826 6.52318 9.86456 6.49751 9.82556C6.47185 9.78656 6.4387 9.75304 6.4 9.72692C6.33675 9.68184 6.26101 9.65762 6.18334 9.65762C6.10567 9.65762 6.02992 9.68184 5.96667 9.72692L2.66668 12.6136C2.64175 12.638 2.60825 12.6517 2.57334 12.6517C2.53844 12.6517 2.50494 12.638 2.48001 12.6136C2.46985 12.5833 2.46985 12.5505 2.48001 12.5203V3.56694C2.48001 3.53157 2.49406 3.49766 2.51906 3.47266C2.54407 3.44765 2.57798 3.4336 2.61334 3.4336C2.63238 3.43379 2.65115 3.43806 2.6684 3.44611C2.68565 3.45416 2.70097 3.46581 2.71334 3.48027L12.6667 15.4002C12.8306 15.5928 13.0352 15.7465 13.2658 15.8503C13.4964 15.954 13.7472 16.0053 14 16.0002H14.3467C14.79 15.9864 15.2105 15.8005 15.5191 15.4819C15.8277 15.1633 16.0002 14.7371 16 14.2936V1.70694C16.0009 1.48257 15.9573 1.26025 15.8719 1.05279C15.7864 0.845325 15.6607 0.656834 15.5021 0.49818C15.3434 0.339526 15.1549 0.21385 14.9475 0.128394C14.74 0.0429388 14.5177 -0.000604876 14.2933 0.000276742C14.0018 0.000422996 13.7151 0.0752534 13.4607 0.217633C13.2063 0.360012 12.9926 0.565193 12.84 0.813609Z" fill="black" fill-opacity="0.9"/>
</svg>
